<svg width="20" height="20" viewBox="0 0 20 20" fill="none" xmlns="http://www.w3.org/2000/svg">
<path fill-rule="evenodd" clip-rule="evenodd" d="M2 4.75C2 4.33579 2.33579 4 2.75 4H17.25C17.6642 4 18 4.33579 18 4.75C18 5.16421 17.6642 5.5 17.25 5.5H2.75C2.33579 5.5 2 5.16421 2 4.75ZM5 10.25C5 9.83579 5.33579 9.5 5.75 9.5H14.25C14.6642 9.5 15 9.83579 15 10.25C15 10.6642 14.6642 11 14.25 11H5.75C5.33579 11 5 10.6642 5 10.25ZM8.25 15C7.83579 15 7.5 15.3358 7.5 15.75C7.5 16.1642 7.83579 16.5 8.25 16.5H11.75C12.1642 16.5 12.5 16.1642 12.5 15.75C12.5 15.3358 12.1642 15 11.75 15H8.25Z" fill="black"/>
</svg>
