<svg width="18" height="18" viewBox="0 0 18 18" fill="none" xmlns="http://www.w3.org/2000/svg">
<path fill-rule="evenodd" clip-rule="evenodd" d="M9 13.5C6.23858 13.5 4 11.2614 4 8.5C4 5.73858 6.23858 3.5 9 3.5C11.7614 3.5 14 5.73858 14 8.5C14 9.99322 13.3467 11.3326 12.307 12.2503C11.425 13.0287 10.2687 13.5 9 13.5ZM13.5815 12.3744C14.4664 11.3291 15 9.97685 15 8.5C15 5.18629 12.3137 2.5 9 2.5C5.68629 2.5 3 5.18629 3 8.5C3 11.8137 5.68629 14.5 9 14.5C10.4769 14.5 11.8291 13.9664 12.8744 13.0815L16.1464 16.3536L16.8536 15.6464L13.5815 12.3744Z" fill="#ACB2C2"/>
</svg>
